<svg width="33" height="33" viewBox="0 0 33 33" fill="none" xmlns="http://www.w3.org/2000/svg">
<path fill-rule="evenodd" clip-rule="evenodd" d="M7.06083 4.91161C6.44398 4.56891 5.67469 4.67666 5.17572 5.17563C4.67675 5.6746 4.56901 6.44388 4.9117 7.06073L7.94102 12.5135C9.26697 14.9002 9.26698 17.8023 7.94102 20.189L4.9117 25.6417C4.56901 26.2586 4.67675 27.0279 5.17572 27.5268C5.67469 28.0258 6.44398 28.1336 7.06083 27.7909L12.5136 24.7615C14.9003 23.4356 17.8024 23.4356 20.189 24.7615L25.6418 27.7909C26.2587 28.1336 27.028 28.0258 27.5269 27.5268C28.0259 27.0279 28.1337 26.2586 27.791 25.6417L24.7616 20.1889C23.4357 17.8023 23.4357 14.9001 24.7616 12.5135L27.791 7.06074C28.1337 6.44389 28.0259 5.6746 27.5269 5.17563C27.028 4.67666 26.2587 4.56892 25.6418 4.91161L20.189 7.94095C17.8024 9.26687 14.9003 9.26689 12.5136 7.94093L7.06083 4.91161Z" fill="black"/>
<path fill-rule="evenodd" clip-rule="evenodd" d="M17.871 1.69291C17.6771 1.01441 17.057 0.546631 16.3513 0.546631C15.6457 0.546631 15.0255 1.01441 14.8317 1.69291L13.118 7.69067C12.368 10.3159 10.3159 12.368 7.69067 13.118L1.69291 14.8317C1.01441 15.0255 0.546631 15.6457 0.546631 16.3513C0.546631 17.057 1.01441 17.6771 1.69291 17.871L7.69069 19.5847C10.3159 20.3347 12.368 22.3868 13.118 25.012L14.8317 31.0098C15.0255 31.6883 15.6457 32.156 16.3513 32.156C17.057 32.156 17.6771 31.6883 17.871 31.0098L19.5846 25.012C20.3347 22.3868 22.3868 20.3347 25.012 19.5846L31.0097 17.871C31.6882 17.6771 32.156 17.057 32.156 16.3513C32.156 15.6457 31.6882 15.0255 31.0097 14.8317L25.012 13.118C22.3868 12.368 20.3347 10.3159 19.5846 7.69067L17.871 1.69291Z" fill="black"/>
</svg>
