<svg width="16" height="17" viewBox="0 0 16 17" fill="none" xmlns="http://www.w3.org/2000/svg">
<path fill-rule="evenodd" clip-rule="evenodd" d="M8.76922 1.08022C8.67109 0.736782 8.35718 0.5 8 0.5C7.64281 0.5 7.32891 0.736782 7.23078 1.08022L6.36337 4.11616C5.9837 5.44499 4.94498 6.48373 3.61616 6.86337L0.580222 7.73078C0.236782 7.82891 0 8.14282 0 8.5C0 8.85719 0.236782 9.17109 0.580222 9.26922L3.61617 10.1366C4.94498 10.5163 5.9837 11.555 6.36337 12.8838L7.23078 15.9198C7.32891 16.2632 7.64281 16.5 8 16.5C8.35718 16.5 8.67109 16.2632 8.76922 15.9198L9.63663 12.8838C10.0163 11.555 11.055 10.5163 12.3838 10.1366L15.4198 9.26922C15.7632 9.17109 16 8.85719 16 8.5C16 8.14282 15.7632 7.82891 15.4198 7.73078L12.3838 6.86337C11.055 6.48372 10.0163 5.44498 9.63663 4.11616L8.76922 1.08022Z" fill="black"/>
</svg>
